<?xml version="1.0" standalone="no"?>
<!DOCTYPE svg PUBLIC "-//W3C//DTD SVG 20010904//EN"
 "http://www.w3.org/TR/2001/REC-SVG-20010904/DTD/svg10.dtd">
<svg version="1.0" xmlns="http://www.w3.org/2000/svg"
 width="1053.000000pt" height="200.000000pt" viewBox="0 0 1053.000000 200.000000"
 preserveAspectRatio="xMidYMid meet">
<metadata>
Created by potrace 1.16, written by Peter Selinger 2001-2019
</metadata>
<g transform="translate(0.000000,200.000000) scale(0.100000,-0.100000)"
fill="#d60000" stroke="none">
<path d="M1000 1980 c0 -11 -4 -28 -10 -38 -13 -24 -37 -83 -45 -109 -3 -13
-11 -23 -16 -23 -5 0 -9 -9 -9 -19 0 -11 -11 -41 -25 -67 -14 -26 -25 -53 -25
-61 0 -7 -4 -21 -10 -31 -5 -9 -19 -39 -30 -67 -12 -27 -25 -59 -29 -70 -5
-11 -20 -45 -34 -75 -14 -30 -27 -64 -29 -75 -3 -17 -14 -21 -68 -26 -36 -4
-110 -12 -165 -18 -55 -5 -155 -10 -222 -11 -86 0 -123 -4 -125 -12 -3 -8 -33
-14 -81 -16 -68 -4 -77 -6 -77 -24 0 -10 15 -31 32 -46 18 -15 56 -47 84 -72
53 -47 59 -52 164 -139 36 -30 93 -79 126 -110 34 -31 77 -68 96 -83 34 -26
35 -28 30 -85 -2 -32 -11 -65 -18 -74 -8 -8 -14 -34 -14 -57 0 -22 -4 -43 -9
-47 -6 -3 -13 -27 -16 -53 -3 -26 -10 -55 -16 -64 -5 -10 -9 -37 -9 -62 0 -26
-6 -48 -15 -56 -9 -8 -15 -29 -15 -56 0 -23 -4 -45 -9 -48 -4 -3 -11 -29 -15
-58 -4 -29 -10 -63 -13 -75 -7 -32 30 -31 73 2 18 14 35 25 38 25 6 0 147 83
188 112 15 10 31 18 36 18 5 0 15 6 21 14 7 8 26 22 44 31 18 9 46 25 62 35
17 11 37 23 45 27 8 4 43 25 78 46 57 36 64 38 80 25 9 -9 44 -30 77 -48 33
-18 62 -36 65 -39 3 -4 16 -12 30 -18 14 -7 43 -24 65 -38 22 -14 47 -28 55
-32 8 -5 41 -25 72 -46 31 -20 60 -37 64 -37 4 0 22 -11 40 -25 18 -14 35 -25
39 -25 3 0 23 -11 45 -25 69 -43 93 -27 70 48 -7 23 -14 56 -17 72 -2 17 -6
37 -10 45 -9 25 -34 122 -43 170 -22 108 -29 141 -54 234 -14 54 -26 106 -26
116 0 10 30 44 67 76 36 32 78 69 92 82 37 33 215 184 239 202 63 48 142 127
142 143 0 14 -10 17 -62 17 -36 0 -75 6 -92 15 -20 11 -63 15 -150 16 -66 0
-161 5 -211 10 -49 6 -120 12 -157 16 -59 5 -68 8 -68 25 0 11 -6 32 -14 46
-8 15 -26 54 -41 87 -15 33 -33 73 -41 88 -8 16 -14 35 -14 42 0 7 -6 26 -14
42 -8 15 -19 39 -24 53 -15 35 -42 99 -57 135 -7 17 -17 41 -23 55 -40 97 -47
109 -69 110 -16 0 -23 -6 -23 -20z"/>
<path d="M3388 1943 c-8 -21 -18 -45 -22 -53 -3 -8 -10 -22 -15 -30 -5 -8 -17
-33 -26 -55 -25 -62 -34 -83 -45 -107 -5 -13 -25 -61 -44 -108 -19 -47 -50
-119 -70 -161 -20 -42 -36 -84 -36 -92 0 -24 -76 -34 -350 -47 -107 -5 -204
-12 -215 -16 -11 -4 -54 -10 -95 -13 -58 -5 -76 -10 -78 -22 -3 -18 39 -66
107 -119 25 -19 104 -87 175 -151 72 -64 156 -137 186 -161 l55 -44 -1 -65
c-1 -35 -9 -93 -18 -129 -38 -149 -47 -187 -52 -220 -3 -19 -8 -42 -11 -50 -9
-22 -32 -117 -43 -175 -5 -27 -12 -60 -16 -72 -6 -21 -3 -23 29 -23 19 0 37 4
39 9 2 4 30 23 63 41 33 18 62 36 65 39 3 3 25 17 50 30 25 13 74 43 110 66
36 23 92 57 125 75 33 18 62 36 65 39 3 3 22 15 43 25 20 11 37 23 37 28 0 16
37 8 55 -12 10 -11 27 -22 39 -26 11 -4 92 -52 179 -106 88 -55 167 -102 176
-106 9 -3 51 -27 93 -54 69 -43 115 -58 130 -43 2 3 -4 37 -15 77 -20 78 -44
183 -53 233 -3 17 -10 39 -14 50 -5 11 -14 45 -20 75 -25 128 -29 147 -39 180
-22 73 -15 102 36 145 26 22 65 56 87 76 23 20 84 75 138 123 53 47 99 86 103
86 4 0 40 30 81 67 50 45 74 74 74 89 0 20 -6 22 -82 28 -46 3 -119 10 -163
15 -44 5 -142 10 -217 10 -80 1 -139 5 -143 11 -3 6 -25 10 -48 10 -61 0 -87
10 -87 31 0 17 -40 115 -61 149 -5 8 -12 22 -15 30 -3 8 -10 23 -15 32 -5 10
-9 23 -9 29 0 12 -6 26 -74 181 -9 20 -16 39 -16 43 0 8 -46 110 -65 145 -22
40 -48 37 -67 -7z"/>
<path d="M5703 1958 c-5 -7 -20 -38 -33 -68 -39 -95 -61 -144 -76 -173 -8 -16
-14 -35 -14 -43 0 -8 -4 -22 -10 -32 -8 -15 -23 -49 -44 -102 -3 -8 -10 -22
-15 -30 -5 -8 -14 -28 -21 -45 -6 -16 -18 -43 -26 -58 -8 -16 -14 -34 -14 -40
0 -7 -10 -24 -23 -39 -22 -27 -24 -27 -212 -38 -104 -6 -203 -15 -219 -21 -16
-5 -84 -9 -151 -9 -107 0 -124 -2 -139 -19 -17 -19 -16 -21 21 -58 21 -21 65
-60 98 -88 51 -42 178 -154 374 -326 27 -24 41 -44 38 -53 -3 -8 -11 -43 -17
-78 -6 -35 -15 -72 -20 -83 -5 -11 -18 -65 -30 -120 -12 -55 -29 -127 -37
-160 -36 -150 -52 -236 -47 -249 7 -19 55 -5 99 29 19 14 37 25 40 25 3 0 21
11 39 25 18 14 36 25 40 25 4 0 66 36 137 80 70 44 131 80 134 80 2 0 35 19
72 42 38 23 76 41 85 40 10 0 33 -12 51 -26 19 -14 37 -26 41 -26 3 0 46 -25
95 -55 49 -30 94 -55 99 -55 6 0 12 -4 14 -8 3 -8 104 -72 113 -72 3 0 40 -22
83 -48 88 -55 127 -73 136 -65 10 10 7 81 -3 88 -5 3 -13 31 -17 63 -3 31 -10
62 -14 67 -4 6 -10 28 -13 50 -6 42 -29 139 -39 165 -4 8 -9 33 -13 55 -4 22
-10 45 -15 50 -4 6 -10 30 -14 55 -3 25 -8 63 -12 86 l-6 40 90 82 c49 45 93
82 97 82 6 0 62 50 137 121 15 15 47 42 70 60 24 18 69 58 100 88 47 44 56 57
48 72 -9 16 -28 18 -148 22 -138 4 -517 33 -560 43 -16 3 -30 19 -44 52 -50
117 -111 260 -124 289 -8 17 -14 35 -14 41 0 5 -10 29 -23 53 -13 24 -32 67
-42 94 -43 115 -77 156 -102 123z"/>
<path d="M7992 1879 c-23 -50 -42 -94 -42 -99 0 -4 -11 -30 -24 -57 -13 -26
-31 -66 -39 -88 -8 -22 -31 -74 -50 -116 -20 -41 -39 -87 -42 -102 -4 -15 -11
-30 -16 -33 -5 -3 -9 -13 -9 -23 0 -10 -10 -27 -22 -38 -21 -19 -44 -23 -213
-33 -104 -7 -200 -16 -213 -21 -13 -5 -81 -9 -151 -9 -100 0 -131 -3 -141 -15
-18 -21 -4 -51 43 -87 23 -18 119 -100 212 -183 94 -82 187 -163 208 -178 67
-50 72 -64 52 -154 -10 -43 -23 -100 -31 -128 -8 -27 -25 -98 -39 -157 -14
-60 -36 -155 -50 -212 -14 -57 -25 -109 -25 -115 0 -25 57 -8 138 42 48 28 93
55 102 60 8 4 29 16 45 27 17 11 37 23 45 26 8 4 35 21 60 38 60 41 81 54 105
65 11 5 47 25 79 45 33 20 67 36 77 36 15 0 187 -95 215 -118 5 -5 32 -22 60
-37 27 -15 56 -33 65 -41 8 -8 18 -14 22 -14 3 0 47 -25 97 -55 137 -83 163
-95 183 -83 12 6 15 14 9 21 -5 7 -12 32 -16 57 -4 24 -11 49 -15 55 -5 5 -11
30 -14 55 -3 25 -13 74 -22 110 -9 36 -23 92 -31 125 -8 33 -17 76 -20 95 -3
19 -9 44 -14 55 -16 35 -29 129 -19 146 4 9 25 30 46 47 52 43 100 84 225 196
58 53 108 96 111 96 2 0 36 30 76 67 51 48 71 73 69 87 -3 20 -11 21 -153 28
-82 3 -161 9 -175 12 -14 3 -99 10 -190 16 -90 6 -174 13 -185 16 -14 3 -31
28 -53 76 -18 39 -32 76 -32 82 0 6 -7 20 -15 30 -8 11 -15 28 -15 38 0 10 -4
18 -10 18 -5 0 -10 9 -10 19 0 11 -6 32 -14 48 -8 15 -34 73 -57 128 -114 271
-114 271 -177 134z"/>
<path d="M10281 1938 c-8 -18 -20 -46 -27 -63 -38 -90 -67 -153 -79 -177 -8
-14 -15 -33 -15 -41 0 -7 -17 -49 -38 -93 -22 -43 -47 -101 -57 -127 -10 -26
-22 -50 -26 -53 -5 -3 -9 -16 -9 -29 0 -44 -30 -53 -240 -65 -107 -7 -203 -16
-212 -21 -9 -5 -75 -9 -147 -9 -116 0 -131 -2 -140 -18 -12 -23 17 -68 64
-100 16 -12 46 -35 65 -52 19 -17 55 -49 80 -70 110 -96 156 -136 175 -155 11
-11 48 -42 83 -70 68 -55 72 -68 51 -150 -31 -120 -88 -357 -100 -412 -5 -24
-13 -62 -18 -85 -5 -24 -14 -58 -19 -76 -6 -18 -9 -39 -6 -47 10 -24 43 -8
235 110 9 6 36 21 60 34 24 13 65 39 90 57 26 19 51 34 57 34 5 0 15 7 22 15
7 8 19 15 28 15 8 0 29 10 46 23 17 13 47 32 67 44 32 18 40 19 60 8 13 -8 42
-23 64 -35 48 -25 78 -43 85 -51 3 -4 15 -9 28 -13 l22 -7 0 640 c0 412 -3
641 -10 641 -5 0 -13 12 -16 28 -4 15 -10 32 -15 37 -4 6 -16 33 -27 60 -11
28 -32 76 -46 107 -14 31 -26 59 -26 62 0 3 -13 35 -30 71 -34 75 -57 84 -79
33z"/>
</g>
</svg>
