<?xml version="1.0" standalone="no"?>
<!DOCTYPE svg PUBLIC "-//W3C//DTD SVG 20010904//EN"
 "http://www.w3.org/TR/2001/REC-SVG-20010904/DTD/svg10.dtd">
<svg version="1.0" xmlns="http://www.w3.org/2000/svg"
 width="840.000000pt" height="779.000000pt" viewBox="0 0 840.000000 779.000000"
 preserveAspectRatio="xMidYMid meet">
<metadata>
Created by potrace 1.16, written by Peter Selinger 2001-2019
</metadata>
<g transform="translate(0.000000,779.000000) scale(0.100000,-0.100000)"
fill="#ffffff" stroke="none">
<path d="M453 7775 c-209 -46 -382 -214 -434 -425 -21 -83 -21 -6828 0 -6910
55 -219 223 -380 443 -426 57 -12 578 -14 3470 -12 l3403 3 55 21 c156 60 278
162 339 281 66 132 61 -166 61 3588 0 3764 5 3460 -63 3589 -41 79 -154 192
-234 234 -34 18 -96 41 -139 52 -76 20 -123 20 -3458 19 -2797 0 -3392 -3
-3443 -14z m1451 -1085 c230 -58 428 -257 481 -481 19 -83 19 -248 0 -324 -29
-113 -90 -221 -174 -304 -131 -131 -261 -190 -436 -198 -219 -11 -408 72 -553
242 -87 101 -152 281 -152 419 0 301 218 580 507 650 88 21 235 20 327 -4z
m3556 -1741 c654 -61 998 -384 1125 -1058 46 -240 48 -286 52 -1538 l4 -1193
-575 0 -575 0 -4 1073 c-3 1167 -3 1147 -62 1334 -62 197 -186 318 -375 364
-85 21 -288 16 -383 -10 -286 -76 -429 -293 -467 -706 -6 -65 -10 -506 -10
-1082 l0 -973 -575 0 -575 0 0 1855 0 1855 550 0 550 0 0 -255 c0 -198 3 -255
13 -254 6 0 37 39 67 86 64 98 183 217 291 290 269 182 565 248 949 212z
m-3150 -1934 l0 -1855 -575 0 -575 0 0 1855 0 1855 575 0 575 0 0 -1855z"/>
<path d="M8094 1495 c-28 -14 -59 -37 -70 -52 -89 -121 -36 -289 104 -329 206
-60 357 187 208 341 -66 69 -155 83 -242 40z m159 -19 c102 -42 140 -183 72
-271 -36 -48 -80 -69 -142 -68 -183 1 -236 258 -69 334 49 22 95 24 139 5z"/>
<path d="M8112 1313 c3 -93 5 -108 21 -111 14 -3 17 4 17 47 0 67 19 67 62 1
20 -29 40 -50 51 -50 17 0 17 3 -4 38 -12 20 -26 41 -30 46 -5 5 1 14 14 20
33 17 44 59 23 90 -15 24 -22 26 -87 26 l-70 0 3 -107z m126 50 c3 -17 -3 -26
-23 -33 -51 -19 -65 -14 -65 26 l0 35 43 -3 c35 -2 43 -7 45 -25z"/>
</g>
</svg>
